<svg xmlns="http://www.w3.org/2000/svg" aria-hidden="true" style="position:absolute;width:0;height:0;overflow:hidden">
  <defs>
    <symbol id="icon-arrow" viewBox="0 0 37 32">
      <path d="m18.648 2.376 17.222-.537-3.52 16.867-5.665-6.751L3.114 31.733.741 28.904 24.312 9.126l-5.665-6.751z"/>
    </symbol>
    <symbol id="icon-arrow-right" viewBox="0 0 64 32">
      <path d="M44.444 0 64 15.396 44.444 30.792V18.063H0V12.73h44.444V.001z"/>
    </symbol>
    <symbol id="icon-camera" viewBox="0 0 32 32">
      <path d="M21 17a4.997 4.997 0 0 1-5 5 5.002 5.002 0 0 1-5-5 4.998 4.998 0 0 1 8.536-3.536A4.998 4.998 0 0 1 21 17z"/>
      <path d="M4 8a4.003 4.003 0 0 0-4 4v12a4.003 4.003 0 0 0 4 4h24a4.003 4.003 0 0 0 4-4V12a4.003 4.003 0 0 0-4-4h-2.344a4 4 0 0 1-2.828-1.172l-1.656-1.656A4 4 0 0 0 18.344 4h-4.688a4 4 0 0 0-2.828 1.172L9.172 6.828A4 4 0 0 1 6.344 8H4zm1 4a.997.997 0 0 1-1-1 .997.997 0 0 1 1-1 .997.997 0 0 1 1 1 .997.997 0 0 1-1 1zm18 5a6.999 6.999 0 1 1-14 0 7.003 7.003 0 0 1 7-7 7.003 7.003 0 0 1 7 7z"/>
    </symbol>
    <symbol id="icon-close" viewBox="0 0 32 32">
      <path stroke-linecap="round" stroke-linejoin="round" stroke-width="2.4" d="M24 8 8 24M8 8l16 16"/>
    </symbol>
    <symbol id="icon-menu" viewBox="0 0 46 22">
      <path fill="none" stroke="#fff" stroke-linecap="round" stroke-width="3.429" d="M8.671 5.074H44M8.671 24.468H44m-24.398-9.697H44" style="stroke:var(--color1, #fff)"/>
    </symbol>
    <symbol id="icon-star" viewBox="0 0 32 32">
      <path stroke-linecap="round" stroke-linejoin="round" stroke-width="2.4" d="m16 2.667 4.12 8.347 9.213 1.347-6.667 6.493 1.573 9.173-8.24-4.333-8.24 4.333 1.573-9.173-6.667-6.493 9.213-1.347 4.12-8.347z"/>
    </symbol>
    <symbol id="icon-stars-rating" viewBox="0 0 186 32">
      <path fill="#bea69e" stroke="#bea69e" stroke-linecap="round" stroke-linejoin="round" stroke-width="2.4" d="m16 3.2 3.955 7.899 8.845 1.274-6.4 6.145 1.51 8.681L16 23.098l-7.91 4.101 1.51-8.681-6.4-6.145 8.845-1.274L16 3.2zm38.4 0 3.955 7.899 8.845 1.274-6.4 6.145 1.51 8.681-7.91-4.101-7.91 4.101L48 18.518l-6.4-6.145 8.845-1.274L54.4 3.2zm38.4 0 3.955 7.899 8.845 1.274-6.4 6.145 1.51 8.681-7.91-4.101-7.91 4.101 1.51-8.681-6.4-6.145 8.845-1.274L92.8 3.2zm38.4 0 3.955 7.899L144 12.373l-6.4 6.145 1.51 8.681-7.91-4.101-7.91 4.101 1.51-8.681-6.4-6.145 8.845-1.274L131.2 3.2z" style="fill:var(--color2, #bea69e);stroke:var(--color2, #bea69e)"/>
      <path fill="#fff" stroke="#414141" stroke-linecap="round" stroke-linejoin="round" stroke-width="1.6" d="m169.6 3.2 3.955 7.899 8.845 1.274-6.4 6.145 1.51 8.681-7.91-4.101-7.91 4.101 1.51-8.681-6.4-6.145 8.845-1.274L169.6 3.2z" opacity=".2" style="fill:var(--color1, #fff);stroke:var(--color3, #414141)"/>
    </symbol>
    <symbol id="logo" viewBox="0 0 124 17">
      <path fill="#fff" d="M10.344 9.216H3.336v6.72H0V0h11.352v2.784H3.336v3.624h7.008v2.808ZM17.107 13.632c1.896 0 2.856-1.2 2.856-3.6 0-2.4-.96-3.576-2.856-3.576s-2.856 1.176-2.856 3.576c0 2.4.96 3.6 2.856 3.6Zm0 2.616c-3.816 0-6.072-2.544-6.072-6.216 0-3.744 2.328-6.216 6.072-6.216 3.696 0 6 2.448 6 6.216 0 3.744-2.328 6.216-6 6.216ZM31.724 11.664h3.144c-.336 2.736-2.568 4.584-5.424 4.584-3.216 0-5.424-2.136-5.424-6.36s2.208-6.072 5.52-6.072c3.072 0 5.16 1.752 5.352 4.536h-3.144c-.168-1.224-1.056-1.944-2.232-1.944-1.32 0-2.4.84-2.4 3.408s1.08 3.816 2.304 3.816c1.224 0 2.184-.696 2.304-1.968ZM46.423 15.936H43.47V14.28c-.816 1.344-2.04 1.968-3.672 1.968-2.352 0-4.008-1.752-4.008-4.344V4.128h3.12v7.296c0 1.488.672 2.208 1.992 2.208 1.584 0 2.424-1.128 2.424-2.688V4.128h3.096v11.808ZM57.895 7.704h-3c-.168-1.152-.792-1.56-2.208-1.56-1.176 0-1.848.288-1.848.984s.648.984 1.92 1.344c1.344.384 2.616.648 3.528 1.008 1.248.504 1.944 1.32 1.944 2.856 0 2.448-1.8 3.912-5.16 3.912-3.624 0-5.64-1.704-5.688-4.104h3.216c0 1.104.936 1.752 2.448 1.752 1.104 0 2.088-.336 2.088-1.224 0-.84-.888-1.104-1.896-1.344-1.992-.48-3.096-.816-3.936-1.344-1.104-.696-1.488-1.608-1.488-2.664 0-1.992 1.368-3.504 4.968-3.504 3.408 0 4.944 1.344 5.112 3.888ZM62.375 15.936H59.04v-3.24h3.336v3.24ZM73.86 9.216h-7.008v6.72h-3.336V0h11.352v2.784h-8.016v3.624h7.008v2.808ZM78.356 15.936h-3.12V4.128h2.928v1.416c1.032-1.584 2.232-1.728 3.504-1.728h.408v3.192a5.247 5.247 0 0 0-.864-.072c-1.92 0-2.856.96-2.856 2.856v6.144ZM89.513 11.448l.024-1.296c-.312.312-.864.48-2.016.696-1.776.336-2.352.84-2.352 1.848 0 .888.528 1.32 1.512 1.32 1.608 0 2.808-1.176 2.832-2.568Zm3.144 4.488h-2.904a4.595 4.595 0 0 1-.192-1.056c-.744.816-1.992 1.368-3.576 1.368-2.688 0-3.936-1.32-3.936-3.24 0-3.408 2.28-3.792 5.424-4.224 1.56-.216 1.992-.528 1.992-1.344 0-.768-.768-1.224-1.992-1.224-1.416 0-1.992.696-2.136 1.752h-2.904c.048-2.448 1.392-4.152 5.184-4.152 3.744 0 5.04 1.68 5.04 4.656v7.464ZM110.929 15.936h-3.048V8.784c0-1.416-.744-2.424-1.848-2.424-1.152 0-1.992 1.08-1.992 2.52v7.056h-3.12V8.832c0-1.896-.504-2.376-1.872-2.376-1.248 0-1.896.768-1.896 2.304v7.176h-3.12V4.128h2.928v1.728c.792-1.56 1.896-2.04 3.456-2.04 1.608 0 2.376.504 3.288 1.872.648-1.296 1.704-1.872 3.192-1.872 2.376 0 4.032 1.728 4.032 3.936v8.184ZM115.079 8.88h4.824c-.048-1.752-1.2-2.592-2.424-2.592-1.248 0-2.28.96-2.4 2.592Zm8.04 1.968h-8.136c.096 1.776 1.104 2.928 2.64 2.928 1.008 0 1.896-.504 2.112-1.32h3.216c-.72 2.424-2.664 3.792-5.184 3.792-3.936 0-5.904-2.16-5.904-6.432 0-3.648 2.088-6 5.712-6 3.624 0 5.544 2.352 5.544 7.032Z"/>
    </symbol>
  </defs>
</svg>