<svg width="116" height="20" viewBox="0 0 116 20" fill="none" xmlns="http://www.w3.org/2000/svg">
<path d="M10 2L12.472 6.93691L18 7.73344L14 11.5741L14.944 17L10 14.4369L5.056 17L6 11.5741L2 7.73344L7.528 6.93691L10 2Z" fill="#BEA69E" stroke="#BEA69E" stroke-width="1.5" stroke-linecap="round" stroke-linejoin="round"/>
<path d="M34 2L36.472 6.93691L42 7.73344L38 11.5741L38.944 17L34 14.4369L29.056 17L30 11.5741L26 7.73344L31.528 6.93691L34 2Z" fill="#BEA69E" stroke="#BEA69E" stroke-width="1.5" stroke-linecap="round" stroke-linejoin="round"/>
<path d="M58 2L60.472 6.93691L66 7.73344L62 11.5741L62.944 17L58 14.4369L53.056 17L54 11.5741L50 7.73344L55.528 6.93691L58 2Z" fill="#BEA69E" stroke="#BEA69E" stroke-width="1.5" stroke-linecap="round" stroke-linejoin="round"/>
<path d="M82 2L84.472 6.93691L90 7.73344L86 11.5741L86.944 17L82 14.4369L77.056 17L78 11.5741L74 7.73344L79.528 6.93691L82 2Z" fill="#BEA69E" stroke="#BEA69E" stroke-width="1.5" stroke-linecap="round" stroke-linejoin="round"/>
<path d="M106 2L108.472 6.93691L111.236 7.33517L114 7.73344L110 11.5741L110.944 17L106 14.4369L101.056 17L102 11.5741L98 7.73344L103.528 6.93691L106 2Z" fill="white" fill-opacity="0.2" stroke="#414141" stroke-linecap="round" stroke-linejoin="round"/>
</svg>
